Normalized EMG Linear Envelopes
nRows=54
nColumns=17

endheader
time	        VM	        VL	        RF	       GRA	        TA	   ADDLONG	   SEMIMEM	      BFLH	        GM	        GL	       TFL	   GLUTMAX	   GLUTMED	      PIRI	    OBTINT	        QF	
2.0725	  0.046121	  0.041941	  0.037283	  0.336085	  0.093804	  0.329523	  0.096757	  0.036017	  0.197394	  0.128212	  0.261523	  0.000000	  0.311934	  0.301970	  2.000789	  0.278708	
2.073	  0.044802	  0.040295	  0.037029	  0.339750	  0.095526	  0.329946	  0.097366	  0.035873	  0.192884	  0.124776	  0.263864	  0.000000	  0.309519	  0.302746	  2.005045	  0.276255	
2.0735	  0.043514	  0.038685	  0.036794	  0.343407	  0.097297	  0.330306	  0.097964	  0.035741	  0.188442	  0.121407	  0.266195	  0.000000	  0.307055	  0.303527	  2.009018	  0.273794	
2.074	  0.042258	  0.037111	  0.036576	  0.347056	  0.099117	  0.330605	  0.098551	  0.035621	  0.184067	  0.118102	  0.268515	  0.000000	  0.304542	  0.304314	  2.012701	  0.271329	
2.0745	  0.041033	  0.035572	  0.036377	  0.350695	  0.100988	  0.330843	  0.099126	  0.035512	  0.179760	  0.114863	  0.270822	  0.000000	  0.301985	  0.305108	  2.016087	  0.268857	
2.075	  0.039838	  0.034069	  0.036196	  0.354323	  0.102907	  0.331021	  0.099691	  0.035414	  0.175521	  0.111690	  0.273115	  0.000000	  0.299384	  0.305909	  2.019168	  0.266381	
2.0755	  0.038674	  0.032601	  0.036034	  0.357937	  0.104876	  0.331140	  0.100243	  0.035327	  0.171351	  0.108581	  0.275393	  0.000000	  0.296742	  0.306717	  2.021940	  0.263901	
2.076	  0.037539	  0.031167	  0.035891	  0.361538	  0.106894	  0.331201	  0.100784	  0.035250	  0.167249	  0.105537	  0.277654	  0.000000	  0.294063	  0.307532	  2.024395	  0.261418	
2.0765	  0.036434	  0.029768	  0.035766	  0.365123	  0.108961	  0.331204	  0.101313	  0.035183	  0.163216	  0.102557	  0.279897	  0.000000	  0.291347	  0.308356	  2.026531	  0.258932	
2.077	  0.035358	  0.028403	  0.035660	  0.368690	  0.111077	  0.331151	  0.101830	  0.035127	  0.159251	  0.099641	  0.282120	  0.000000	  0.288599	  0.309189	  2.028343	  0.256444	
2.0775	  0.034311	  0.027072	  0.035573	  0.372239	  0.113240	  0.331043	  0.102336	  0.035079	  0.155356	  0.096789	  0.284322	  0.000000	  0.285819	  0.310031	  2.029830	  0.253955	
2.078	  0.033293	  0.025774	  0.035506	  0.375766	  0.115452	  0.330880	  0.102829	  0.035040	  0.151530	  0.094001	  0.286502	  0.000000	  0.283012	  0.310881	  2.030991	  0.251465	
2.0785	  0.032302	  0.024509	  0.035457	  0.379271	  0.117710	  0.330665	  0.103311	  0.035011	  0.147773	  0.091275	  0.288658	  0.000000	  0.280178	  0.311741	  2.031824	  0.248975	
2.079	  0.031340	  0.023277	  0.035429	  0.382752	  0.120016	  0.330400	  0.103780	  0.034989	  0.144085	  0.088612	  0.290790	  0.000000	  0.277320	  0.312610	  2.032330	  0.246486	
2.0795	  0.030404	  0.022077	  0.035420	  0.386208	  0.122369	  0.330085	  0.104237	  0.034976	  0.140466	  0.086011	  0.292897	  0.000000	  0.274441	  0.313488	  2.032508	  0.243998	
2.08	  0.029496	  0.020909	  0.035431	  0.389635	  0.124768	  0.329722	  0.104682	  0.034970	  0.136916	  0.083471	  0.294977	  0.000000	  0.271543	  0.314375	  2.032357	  0.241511	
2.0805	  0.028615	  0.019773	  0.035462	  0.393034	  0.127212	  0.329312	  0.105115	  0.034973	  0.133435	  0.080993	  0.297029	  0.000000	  0.268627	  0.315271	  2.031877	  0.239027	
2.081	  0.027759	  0.018667	  0.035513	  0.396402	  0.129702	  0.328857	  0.105534	  0.034983	  0.130022	  0.078576	  0.299054	  0.000000	  0.265696	  0.316176	  2.031067	  0.236544	
2.0815	  0.026930	  0.017593	  0.035585	  0.399737	  0.132237	  0.328359	  0.105942	  0.035000	  0.126677	  0.076219	  0.301048	  0.000000	  0.262752	  0.317090	  2.029926	  0.234064	
2.082	  0.026126	  0.016549	  0.035678	  0.403039	  0.134815	  0.327818	  0.106337	  0.035024	  0.123401	  0.073922	  0.303013	  0.000000	  0.259796	  0.318011	  2.028453	  0.231588	
2.0825	  0.025348	  0.015534	  0.035791	  0.406305	  0.137438	  0.327235	  0.106719	  0.035056	  0.120192	  0.071685	  0.304945	  0.000000	  0.256830	  0.318940	  2.026648	  0.229114	
2.083	  0.024594	  0.014550	  0.035926	  0.409534	  0.140103	  0.326611	  0.107090	  0.035094	  0.117050	  0.069506	  0.306845	  0.000000	  0.253857	  0.319875	  2.024513	  0.226645	
2.0835	  0.023865	  0.013594	  0.036082	  0.412725	  0.142810	  0.325948	  0.107448	  0.035138	  0.113976	  0.067386	  0.308710	  0.000000	  0.250879	  0.320817	  2.022049	  0.224179	
2.084	  0.023160	  0.012667	  0.036260	  0.415876	  0.145559	  0.325246	  0.107793	  0.035189	  0.110968	  0.065323	  0.310540	  0.000000	  0.247896	  0.321764	  2.019258	  0.221719	
2.0845	  0.022479	  0.011768	  0.036459	  0.418986	  0.148349	  0.324507	  0.108127	  0.035247	  0.108027	  0.063317	  0.312333	  0.000000	  0.244911	  0.322715	  2.016144	  0.219265	
2.085	  0.021822	  0.010898	  0.036680	  0.422052	  0.151179	  0.323731	  0.108449	  0.035310	  0.105151	  0.061368	  0.314088	  0.000000	  0.241925	  0.323670	  2.012713	  0.216817	
2.0855	  0.021187	  0.010055	  0.036923	  0.425072	  0.154049	  0.322919	  0.108758	  0.035379	  0.102341	  0.059475	  0.315805	  0.000000	  0.238940	  0.324627	  2.008971	  0.214376	
2.086	  0.020576	  0.009239	  0.037188	  0.428047	  0.156956	  0.322072	  0.109056	  0.035453	  0.099596	  0.057638	  0.317481	  0.000000	  0.235959	  0.325586	  2.004926	  0.211943	
2.0865	  0.019987	  0.008449	  0.037476	  0.430972	  0.159901	  0.321190	  0.109342	  0.035534	  0.096915	  0.055855	  0.319116	  0.000061	  0.232981	  0.326544	  2.000584	  0.209520	
2.087	  0.019420	  0.007686	  0.037786	  0.433847	  0.162882	  0.320276	  0.109616	  0.035619	  0.094298	  0.054126	  0.320708	  0.000315	  0.230010	  0.327502	  1.995956	  0.207107	
2.0875	  0.018875	  0.006949	  0.038118	  0.436669	  0.165899	  0.319329	  0.109878	  0.035710	  0.091744	  0.052450	  0.322257	  0.000571	  0.227046	  0.328457	  1.991051	  0.204704	
2.088	  0.018351	  0.006237	  0.038474	  0.439436	  0.168950	  0.318351	  0.110128	  0.035805	  0.089253	  0.050827	  0.323761	  0.000830	  0.224090	  0.329408	  1.985877	  0.202314	
2.0885	  0.017848	  0.005551	  0.038853	  0.442146	  0.172035	  0.317343	  0.110367	  0.035905	  0.086824	  0.049256	  0.325220	  0.001091	  0.221145	  0.330354	  1.980445	  0.199936	
2.089	  0.017366	  0.004889	  0.039254	  0.444797	  0.175152	  0.316306	  0.110595	  0.036010	  0.084456	  0.047736	  0.326633	  0.001355	  0.218211	  0.331294	  1.974763	  0.197571	
2.0895	  0.016904	  0.004252	  0.039679	  0.447387	  0.178299	  0.315241	  0.110811	  0.036119	  0.082149	  0.046267	  0.327999	  0.001620	  0.215290	  0.332227	  1.968840	  0.195221	
2.09	  0.016462	  0.003639	  0.040127	  0.449912	  0.181477	  0.314150	  0.111016	  0.036232	  0.079901	  0.044847	  0.329317	  0.001888	  0.212383	  0.333151	  1.962684	  0.192886	
2.0905	  0.016040	  0.003049	  0.040598	  0.452371	  0.184684	  0.313033	  0.111210	  0.036349	  0.077713	  0.043477	  0.330586	  0.002157	  0.209491	  0.334065	  1.956304	  0.190567	
2.091	  0.015637	  0.002482	  0.041093	  0.454762	  0.187918	  0.311892	  0.111393	  0.036470	  0.075583	  0.042154	  0.331807	  0.002428	  0.206615	  0.334968	  1.949706	  0.188265	
2.0915	  0.015252	  0.001938	  0.041611	  0.457083	  0.191179	  0.310728	  0.111566	  0.036594	  0.073511	  0.040879	  0.332978	  0.002699	  0.203756	  0.335858	  1.942897	  0.185982	
2.092	  0.014887	  0.001417	  0.042153	  0.459333	  0.194465	  0.309541	  0.111727	  0.036721	  0.071496	  0.039650	  0.334099	  0.002972	  0.200916	  0.336734	  1.935884	  0.183717	
2.0925	  0.014539	  0.000918	  0.042719	  0.461511	  0.197775	  0.308333	  0.111878	  0.036852	  0.069537	  0.038468	  0.335169	  0.003246	  0.198095	  0.337595	  1.928673	  0.181473	
2.093	  0.014209	  0.000440	  0.043308	  0.463616	  0.201108	  0.307104	  0.112018	  0.036985	  0.067633	  0.037330	  0.336190	  0.003520	  0.195295	  0.338439	  1.921271	  0.179250	
2.0935	  0.013896	  0.000000	  0.043921	  0.465647	  0.204462	  0.305855	  0.112148	  0.037120	  0.065784	  0.036236	  0.337160	  0.003794	  0.192516	  0.339264	  1.913683	  0.177049	
2.094	  0.013601	  0.000000	  0.044557	  0.467604	  0.207836	  0.304588	  0.112267	  0.037258	  0.063988	  0.035186	  0.338081	  0.004069	  0.189761	  0.340069	  1.905915	  0.174871	
2.0945	  0.013322	  0.000000	  0.045217	  0.469486	  0.211230	  0.303302	  0.112376	  0.037399	  0.062244	  0.034179	  0.338953	  0.004344	  0.187029	  0.340853	  1.897973	  0.172716	
2.095	  0.013059	  0.000000	  0.045901	  0.471293	  0.214641	  0.302000	  0.112475	  0.037541	  0.060553	  0.033213	  0.339777	  0.004619	  0.184321	  0.341612	  1.889863	  0.170587	
2.0955	  0.012813	  0.000000	  0.046609	  0.473024	  0.218067	  0.300682	  0.112564	  0.037685	  0.058912	  0.032288	  0.340554	  0.004894	  0.181640	  0.342346	  1.881590	  0.168482	
2.096	  0.012582	  0.000000	  0.047341	  0.474680	  0.221509	  0.299348	  0.112644	  0.037831	  0.057322	  0.031403	  0.341283	  0.005168	  0.178985	  0.343053	  1.873159	  0.166403	
2.0965	  0.012366	  0.000000	  0.048096	  0.476261	  0.224963	  0.298002	  0.112713	  0.037977	  0.055780	  0.030558	  0.341967	  0.005442	  0.176358	  0.343731	  1.864577	  0.164352	
2.097	  0.012165	  0.000000	  0.048876	  0.477767	  0.228428	  0.296643	  0.112773	  0.038125	  0.054287	  0.029750	  0.342605	  0.005715	  0.173760	  0.344377	  1.855848	  0.162327	
2.0975	  0.011979	  0.000000	  0.049679	  0.479201	  0.231903	  0.295273	  0.112823	  0.038274	  0.052841	  0.028980	  0.343199	  0.005987	  0.171191	  0.344991	  1.846978	  0.160330	
2.098	  0.011808	  0.000000	  0.050506	  0.480563	  0.235386	  0.293893	  0.112863	  0.038423	  0.051441	  0.028247	  0.343750	  0.006259	  0.168653	  0.345572	  1.837972	  0.158362	
2.0985	  0.011650	  0.000000	  0.051357	  0.481854	  0.238876	  0.292505	  0.112894	  0.038573	  0.050086	  0.027549	  0.344258	  0.006529	  0.166146	  0.346116	  1.828834	  0.156422	
2.099	  0.011506	  0.000000	  0.052232	  0.483077	  0.242370	  0.291109	  0.112915	  0.038723	  0.048775	  0.026886	  0.344725	  0.006798	  0.163671	  0.346624	  1.819571	  0.154511	
